<svg width="453" height="209" viewBox="0 0 453 209" fill="none" xmlns="http://www.w3.org/2000/svg">
<g clip-path="url(#clip0)">
<path d="M72.6001 81.76H54.8701V118.36H72.6001V81.76Z" fill="#4A54FF"/>
<path d="M63.7399 75.45C68.6299 75.45 72.5999 71.5 72.5999 66.62C72.5999 61.74 68.6299 57.79 63.7399 57.79C58.8399 57.79 54.8799 61.75 54.8799 66.62C54.8699 71.49 58.8399 75.45 63.7399 75.45Z" fill="#4A54FF"/>
<path d="M18.23 102.72C18.23 88.1101 30.16 76.2201 44.82 76.2201H49.89V58.55H44.82C20.38 58.55 0.5 78.3701 0.5 102.72C0.5 127.08 20.38 146.89 44.81 146.89H65.07V129.22H44.81C30.15 129.22 18.23 117.34 18.23 102.72Z" fill="#4A54FF"/>
<path d="M261.32 156.99V109.03H243.59V156.99C243.59 181.35 263.47 201.16 287.9 201.16V183.49C273.25 183.49 261.32 171.6 261.32 156.99Z" fill="#4A54FF"/>
<path d="M318.13 67.48C328.98 59.42 336.02 46.54 336.02 32.05H318.29C318.29 41.03 313.77 48.97 306.9 53.77V0.5H289.17V97.67H306.9V82.83C319.76 84.68 329.69 95.7 329.69 109.03H347.42C347.41 89.93 335.19 73.63 318.13 67.48Z" fill="#4A54FF"/>
<path d="M114.45 92.63C114.45 98.2 109.91 102.73 104.32 102.73V82.53C109.91 82.53 114.45 87.06 114.45 92.63ZM154.97 130.49C154.97 115.88 166.9 103.99 181.56 103.99H198.02V86.32H181.56C157.29 86.32 137.53 105.87 137.26 130C129.25 128.46 122.51 123.32 118.81 116.34C126.83 111.46 132.19 102.66 132.19 92.63C132.19 77.32 119.7 64.87 104.34 64.87V41.78C105.74 37.75 109.57 35 113.91 35C119.49 35 124.04 39.53 124.04 45.1V58.56H126.07L123.98 58.99L124.18 60.09H124.24C127.43 72.35 138.42 80.86 151.2 80.86C166.56 80.86 179.05 68.4 179.05 53.1V25.74H161.3V53.08C161.3 58.65 156.76 63.18 151.17 63.18C146.94 63.18 143.25 60.62 141.74 56.8V45.09C141.74 29.78 129.25 17.33 113.89 17.33C110.55 17.33 107.33 17.94 104.32 19.04V0.5H92.93H86.6H0.5V18.17H56.21V50.98H73.94V18.17H86.6V146.89H104.33V126.71C111.87 139.18 125.41 147.65 140.94 148.12C147.78 163.72 163.41 174.66 181.56 174.66V156.99C166.89 156.99 154.97 145.1 154.97 130.49Z" fill="#4A54FF"/>
<path d="M206.88 50.98C206.88 36.37 218.81 24.48 233.47 24.48C248.13 24.48 260.06 36.37 260.06 50.98V100.2H277.79V50.98C277.79 26.62 257.91 6.81 233.48 6.81C223.51 6.81 214.3 10.11 206.89 15.67V0.5H189.16V71.17H206.89V50.98H206.88Z" fill="#4A54FF"/>
<path d="M434.77 164.56C434.77 179.17 422.84 191.06 408.18 191.06C397.17 191.06 387.58 184.26 383.59 174.57C388.73 168.61 391.72 160.93 391.72 152.69C391.72 134.18 376.61 119.12 358.04 119.12H338.54V205.69H356.26V136.79H358.03C366.82 136.79 373.98 143.92 373.98 152.69C373.98 159.16 370.1 164.93 364.11 167.4L364.24 167.71L363.97 167.73C365.61 190.72 385.03 208.72 408.17 208.72C432.6 208.72 452.48 188.9 452.48 164.55H434.77V164.56Z" fill="#4A54FF"/>
<path d="M300.57 156.99C294.98 156.99 290.44 152.46 290.44 146.89C290.44 141.32 294.98 136.79 300.57 136.79C306.16 136.79 310.7 141.32 310.7 146.89C310.7 152.46 306.15 156.99 300.57 156.99ZM310.7 121.04C307.56 119.81 304.14 119.13 300.57 119.13C285.21 119.13 272.72 131.58 272.72 146.89C272.72 162.2 285.21 174.65 300.57 174.65C304.14 174.65 307.56 173.97 310.7 172.74V179.7H328.42V116.6H310.7V121.04Z" fill="#4A54FF"/>
<path d="M218.27 133.01C218.27 138.58 213.73 143.11 208.14 143.11C202.55 143.11 198.01 138.58 198.01 133.01V116.6H180.29V133.01C180.29 148.32 192.78 160.77 208.14 160.77C223.5 160.77 235.99 148.31 235.99 133.01V71.1699H218.27V133.01Z" fill="#4A54FF"/>
<path d="M170.16 18.17C175.05 18.17 179.02 14.22 179.02 9.34001C179.02 4.46001 175.05 0.51001 170.16 0.51001C165.26 0.51001 161.3 4.47001 161.3 9.34001C161.3 14.21 165.26 18.17 170.16 18.17Z" fill="#4A54FF"/>
</g>
<defs>
<clipPath id="clip0">
<path d="M0.5 0.5H452.5V208.73H0.5V0.5Z" fill="white"/>
</clipPath>
</defs>
</svg>
